	<svg xmlns="http://www.w3.org/2000/svg" style='transform: scaleX(-1)' viewBox="0 0 1910 1070">
		<defs>
			<linearGradient id='1st-grad' x1='0%' y1='0%' x2='100%' y2='100%'>
				<stop offset='0%' style='stop-color: #000; stop-opacity: 1' />
				<stop offset='70%' style='stop-color: steelblue; stop-opacity: 0' />
			</linearGradient>
			<clipPath id='clipcut'>
				<path id='blockk'
					d="M 1914.00,2.00
					C 1914.00,2.00 1562.00,-28.00 1196.00,464.00
						830.00,956.00 0.00,1072.00 0.00,1072.00
						0.00,1072.00 1916.00,1080.00 1916.00,1080.00" />
			</clipPath>
			<clipPath id='cliprect'>
				<rect width="1914" height="1070" />
			</clipPath>
		</defs>
		<g style='clip-path: url(#clipcut)'>
			<path fill="url(#1st-grad)" 
				d="M 1914.00,2.00
					C 1914.00,2.00 1562.00,-28.00 1196.00,464.00
						830.00,956.00 0.00,1072.00 0.00,1072.00
						0.00,1072.00 1916.00,1080.00 1916.00,1080.00" />
			<path fill="url(#1st-grad)"
				d="M 1916.00,392.00
				 C 1916.00,392.00 1180.00,-104.00 860.00,384.00
					 540.00,872.00 580.00,1068.00 0.00,1076.00
					 -580.00,1084.00 932.00,1080.00 932.00,1080.00
					 932.00,1080.00 1008.00,-20.00 1888.00,380.00" />
			<path fill="url(#1st-grad)"
				d="M 376.00,1088.00
					C 376.00,1088.00 112.00,-184.00 624.00,576.00
						1136.00,1336.00 936.00,1072.00 936.00,1072.00
						936.00,1072.00 400.00,1068.00 400.00,1078.00" />
		</g>
		<path fill="url(#1st-grad)" style='clip-path: url(#cliprect)'
			d="M 1916.00,0.00
				 C 1916.00,0.00 2040.00,516.00 1172.00,448.00
					 304.00,380.00 -8.00,1052.00 0.00,1076.00
					 8.00,1100.00 180.00,1076.00 180.00,1076.00
					 180.00,1076.00 240.00,620.00 1156.00,572.00
					 2072.00,524.00 1920.00,72.00 1924.00,204.00" />
	</svg>

