<?xml version="1.0" encoding="UTF-8" standalone="no"?>
<!DOCTYPE svg PUBLIC "-//W3C//DTD SVG 20010904//EN"
              "http://www.w3.org/TR/2001/REC-SVG-20010904/DTD/svg10.dtd">

<svg xmlns="http://www.w3.org/2000/svg"
     width="0.32in" height="0.32in"
     viewBox="0 0 32 32">
  <path id="Selection"
        fill="none" stroke="black" stroke-width="1"
        d="M 16.00,30.98
           C 12.41,30.90 10.03,30.49 7.02,28.35
             4.70,26.71 2.82,24.63 1.70,22.00
             0.90,20.13 0.37,17.03 0.47,15.00
             1.24,-1.40 23.10,-5.70 30.08,9.00
             31.29,11.53 31.97,14.19 31.64,17.00
             30.85,23.58 27.09,25.13 26.00,32.00
             20.44,30.72 21.38,31.09 16.00,30.98 Z
           M 14.09,18.89
           C 13.32,21.36 10.97,22.58 9.00,24.00
             10.93,24.72 12.91,25.60 15.00,25.69
             19.93,25.91 24.15,22.09 23.51,17.00
             22.92,12.31 20.04,12.28 20.00,6.00
             10.72,9.28 15.71,13.76 14.09,18.89 Z" />
</svg>
