<svg xmlns="http://www.w3.org/2000/svg" viewBox="0 0 2000 1350">
 <path fill="black" stroke="black" stroke-width="1" d="M 797.00,18.00 C 797.00,18.00 829.00,50.00 829.00,50.00 832.31,53.31 844.45,63.31 842.83,68.00 841.99,70.44 836.06,75.94 834.00,78.00 834.00,78.00 815.00,97.00 815.00,97.00 815.00,97.00 742.00,169.00 742.00,169.00 742.00,169.00 483.00,427.00 483.00,427.00 483.00,427.00 403.00,506.00 403.00,506.00 403.00,506.00 381.00,528.00 381.00,528.00 378.99,530.01 373.47,536.05 371.00,536.66 367.05,537.65 359.71,528.71 357.00,526.00 357.00,526.00 332.04,501.00 332.04,501.00 332.04,501.00 319.00,487.00 319.00,487.00 315.70,483.70 304.44,474.83 306.74,470.00 307.82,467.74 318.49,457.51 321.00,455.00 321.00,455.00 352.00,424.00 352.00,424.00 352.00,424.00 461.00,316.00 461.00,316.00 461.00,316.00 589.00,188.00 589.00,188.00 589.00,188.00 626.00,151.04 626.00,151.04 626.00,151.04 637.00,141.00 637.00,141.00 637.00,141.00 778.00,0.00 778.00,0.00 783.97,4.27 791.56,12.56 797.00,18.00 Z M 900.00,121.00 C 900.00,121.00 935.00,156.00 935.00,156.00 935.00,156.00 1042.00,263.00 1042.00,263.00 1042.00,263.00 1069.00,289.96 1069.00,289.96 1069.00,289.96 1081.00,301.00 1081.00,301.00 1081.00,301.00 1279.00,499.00 1279.00,499.00 1279.00,499.00 1293.00,512.00 1293.00,512.00 1293.00,512.00 1427.00,646.00 1427.00,646.00 1427.00,646.00 1555.00,773.00 1555.00,773.00 1555.00,773.00 1598.00,816.00 1598.00,816.00 1598.00,816.00 1623.00,840.00 1623.00,840.00 1625.90,833.87 1633.12,827.88 1638.00,823.00 1638.00,823.00 1669.00,792.00 1669.00,792.00 1669.00,792.00 1774.00,687.00 1774.00,687.00 1774.00,687.00 1809.00,652.00 1809.00,652.00 1811.60,649.40 1821.21,639.03 1824.00,638.34 1828.05,637.32 1837.09,648.09 1840.00,651.00 1840.00,651.00 1876.00,687.00 1876.00,687.00 1878.60,689.60 1888.97,699.21 1889.66,702.00 1890.67,706.01 1880.81,714.19 1878.00,717.00 1878.00,717.00 1840.00,755.00 1840.00,755.00 1840.00,755.00 1681.00,914.00 1681.00,914.00 1681.00,914.00 1637.00,958.00 1637.00,958.00 1633.70,961.30 1624.83,972.56 1620.00,970.26 1618.05,969.33 1612.81,963.81 1611.00,962.00 1611.00,962.00 1595.00,946.00 1595.00,946.00 1595.00,946.00 1574.00,925.96 1574.00,925.96 1574.00,925.96 1543.00,895.00 1543.00,895.00 1543.00,895.00 1497.00,849.01 1497.00,849.01 1497.00,849.01 1485.00,838.00 1485.00,838.00 1485.00,838.00 1410.00,763.01 1410.00,763.01 1410.00,763.01 1400.00,753.96 1400.00,753.96 1400.00,753.96 1372.00,726.00 1372.00,726.00 1372.00,726.00 1323.00,677.01 1323.00,677.01 1323.00,677.01 1311.00,666.00 1311.00,666.00 1311.00,666.00 1236.00,591.00 1236.00,591.00 1236.00,591.00 1222.00,578.00 1222.00,578.00 1222.00,578.00 1148.00,504.01 1148.00,504.01 1148.00,504.01 1137.00,493.99 1137.00,493.99 1137.00,493.99 1062.00,419.00 1062.00,419.00 1062.00,419.00 1050.00,407.99 1050.00,407.99 1050.00,407.99 983.00,341.00 983.00,341.00 983.00,341.00 964.00,322.96 964.00,322.96 964.00,322.96 933.00,292.00 933.00,292.00 933.00,292.00 885.00,244.09 885.00,244.09 885.00,244.09 837.00,197.00 837.00,197.00 830.60,190.60 815.58,176.40 811.00,170.00 811.00,170.00 849.00,132.01 849.00,132.01 849.00,132.01 859.00,122.96 859.00,122.96 859.00,122.96 880.00,102.00 880.00,102.00 880.00,102.00 900.00,121.00 900.00,121.00 Z M 800.00,230.00 C 800.00,230.00 847.00,276.99 847.00,276.99 847.00,276.99 858.00,287.01 858.00,287.01 858.00,287.01 934.00,363.00 934.00,363.00 934.00,363.00 946.00,374.01 946.00,374.01 946.00,374.01 996.00,424.00 996.00,424.00 996.00,424.00 1023.00,450.96 1023.00,450.96 1023.00,450.96 1034.00,461.00 1034.00,461.00 1034.00,461.00 1109.00,535.99 1109.00,535.99 1109.00,535.99 1121.00,547.00 1121.00,547.00 1121.00,547.00 1196.00,622.00 1196.00,622.00 1196.00,622.00 1210.00,635.00 1210.00,635.00 1210.00,635.00 1284.00,708.99 1284.00,708.99 1284.00,708.99 1295.00,719.01 1295.00,719.01 1295.00,719.01 1371.00,794.99 1371.00,794.99 1371.00,794.99 1381.00,804.04 1381.00,804.04 1381.00,804.04 1405.00,828.00 1405.00,828.00 1405.00,828.00 1459.00,881.99 1459.00,881.99 1459.00,881.99 1471.00,893.00 1471.00,893.00 1471.00,893.00 1545.00,967.00 1545.00,967.00 1545.00,967.00 1566.00,987.00 1566.00,987.00 1566.00,987.00 1607.00,1028.00 1607.00,1028.00 1609.60,1030.60 1618.82,1040.96 1622.00,1040.96 1624.42,1040.96 1627.37,1037.60 1629.00,1036.00 1629.00,1036.00 1643.00,1022.00 1643.00,1022.00 1643.00,1022.00 1701.00,964.00 1701.00,964.00 1701.00,964.00 1854.00,811.00 1854.00,811.00 1854.00,811.00 1903.00,761.00 1903.00,761.00 1909.05,754.95 1920.74,742.48 1927.00,738.00 1927.00,738.00 1970.00,781.00 1970.00,781.00 1970.00,781.00 1993.00,805.00 1993.00,805.00 1993.00,805.00 1707.00,1091.00 1707.00,1091.00 1707.00,1091.00 1636.00,1162.00 1636.00,1162.00 1636.00,1162.00 1621.00,1177.00 1621.00,1177.00 1618.59,1179.41 1615.18,1183.23 1612.00,1184.40 1610.06,1185.12 1607.09,1185.00 1605.00,1185.00 1605.00,1185.00 967.00,1185.00 967.00,1185.00 967.00,1185.00 822.00,1185.00 822.00,1185.00 819.55,1185.00 816.28,1185.13 814.00,1184.26 809.37,1182.50 795.38,1167.38 791.00,1163.00 791.00,1163.00 738.00,1110.00 738.00,1110.00 732.03,1104.03 717.17,1090.70 714.00,1084.00 714.00,1084.00 1529.00,1084.00 1529.00,1084.00 1529.00,1084.00 1509.00,1064.00 1509.00,1064.00 1509.00,1064.00 1468.00,1023.00 1468.00,1023.00 1468.00,1023.00 1442.00,997.04 1442.00,997.04 1442.00,997.04 1431.00,987.00 1431.00,987.00 1431.00,987.00 1355.00,911.01 1355.00,911.01 1355.00,911.01 1328.00,885.00 1328.00,885.00 1328.00,885.00 1267.00,824.01 1267.00,824.01 1267.00,824.01 1255.00,813.00 1255.00,813.00 1255.00,813.00 1180.00,738.01 1180.00,738.01 1180.00,738.01 1169.00,727.99 1169.00,727.99 1169.00,727.99 1092.00,651.01 1092.00,651.01 1092.00,651.01 1080.00,640.00 1080.00,640.00 1080.00,640.00 1005.00,565.00 1005.00,565.00 1005.00,565.00 981.00,542.00 981.00,542.00 981.00,542.00 915.00,476.04 915.00,476.04 915.00,476.04 906.00,467.96 906.00,467.96 906.00,467.96 829.00,391.00 829.00,391.00 829.00,391.00 817.00,379.99 817.00,379.99 817.00,379.99 775.00,338.00 775.00,338.00 775.00,338.00 738.00,301.09 738.00,301.09 729.74,293.39 715.29,280.78 709.00,272.00 709.00,272.00 775.00,206.00 775.00,206.00 781.30,210.51 793.84,223.84 800.00,230.00 Z M 323.00,1097.00 C 323.00,1097.00 311.02,1085.00 311.02,1085.00 309.58,1083.49 307.20,1081.24 307.20,1079.00 307.20,1076.76 309.58,1074.51 311.02,1073.00 311.02,1073.00 324.00,1060.00 324.00,1060.00 324.00,1060.00 336.00,1048.99 336.00,1048.99 336.00,1048.99 377.00,1008.00 377.00,1008.00 377.00,1008.00 487.00,898.00 487.00,898.00 487.00,898.00 542.00,843.01 542.00,843.01 542.00,843.01 552.00,833.96 552.00,833.96 552.00,833.96 588.00,798.00 588.00,798.00 588.00,798.00 601.00,785.00 601.00,785.00 602.37,783.61 605.31,780.86 605.80,779.00 606.77,775.34 599.43,769.43 597.00,767.00 597.00,767.00 564.00,734.00 564.00,734.00 564.00,734.00 478.00,648.00 478.00,648.00 478.00,648.00 467.96,637.00 467.96,637.00 467.96,637.00 444.00,613.00 444.00,613.00 444.00,613.00 415.00,584.00 415.00,584.00 412.64,581.64 406.43,576.63 407.34,573.00 407.82,571.06 410.60,568.43 412.00,567.00 412.00,567.00 424.00,555.00 424.00,555.00 424.00,555.00 469.00,510.83 469.00,510.83 469.00,510.83 487.00,493.00 487.00,493.00 487.00,493.00 518.00,462.00 518.00,462.00 518.00,462.00 614.00,366.00 614.00,366.00 614.00,366.00 642.00,338.00 642.00,338.00 642.00,338.00 661.00,319.58 661.00,319.58 664.11,316.88 673.11,306.33 676.96,307.34 679.08,307.89 685.96,315.95 688.00,318.00 688.00,318.00 717.00,347.00 717.00,347.00 717.00,347.00 824.00,454.00 824.00,454.00 824.00,454.00 878.00,508.00 878.00,508.00 878.00,508.00 915.17,546.00 915.17,546.00 915.17,546.00 936.00,567.00 936.00,567.00 937.95,568.96 942.80,573.16 942.80,576.00 942.80,578.94 937.09,583.95 935.00,585.99 935.00,585.99 908.00,612.00 908.00,612.00 908.00,612.00 804.00,716.00 804.00,716.00 804.00,716.00 753.00,766.99 753.00,766.99 753.00,766.99 740.00,779.00 740.00,779.00 740.00,779.00 572.00,947.00 572.00,947.00 572.00,947.00 560.00,958.01 560.00,958.01 560.00,958.01 520.00,998.00 520.00,998.00 520.00,998.00 424.00,1094.00 424.00,1094.00 413.54,1104.46 380.71,1138.05 371.00,1145.00 371.00,1145.00 323.00,1097.00 323.00,1097.00 Z M 1579.00,476.00 C 1579.00,476.00 1610.00,445.00 1610.00,445.00 1612.33,442.67 1618.84,435.20 1622.00,435.20 1625.16,435.20 1631.67,442.67 1634.00,445.00 1634.00,445.00 1664.00,475.00 1664.00,475.00 1664.00,475.00 1747.00,558.00 1747.00,558.00 1747.00,558.00 1790.00,602.00 1790.00,602.00 1790.00,602.00 1679.00,713.00 1679.00,713.00 1679.00,713.00 1643.00,749.00 1643.00,749.00 1643.00,749.00 1622.00,769.00 1622.00,769.00 1622.00,769.00 1610.00,757.99 1610.00,757.99 1610.00,757.99 1510.00,658.00 1510.00,658.00 1510.00,658.00 1474.00,622.00 1474.00,622.00 1474.00,622.00 1454.00,601.00 1454.00,601.00 1454.00,601.00 1579.00,476.00 1579.00,476.00 Z M 785.04,548.00 C 785.04,548.00 775.99,538.00 775.99,538.00 775.99,538.00 711.00,473.00 711.00,473.00 711.00,473.00 686.00,448.00 686.00,448.00 683.79,445.79 678.07,439.20 675.00,439.20 672.04,439.20 667.09,444.91 665.00,447.00 665.00,447.00 640.00,472.00 640.00,472.00 640.00,472.00 573.00,539.00 573.00,539.00 573.00,539.00 538.00,575.00 538.00,575.00 538.00,575.00 630.00,668.00 630.00,668.00 630.00,668.00 675.00,712.00 675.00,712.00 675.00,712.00 744.00,643.01 744.00,643.01 744.00,643.01 768.00,620.00 768.00,620.00 768.00,620.00 812.00,575.00 812.00,575.00 812.00,575.00 785.04,548.00 785.04,548.00 Z M 223.00,552.00 C 223.00,552.00 255.00,520.00 255.00,520.00 257.50,517.50 266.24,508.03 269.00,507.34 272.63,506.43 277.64,512.64 280.00,515.00 280.00,515.00 307.00,542.00 307.00,542.00 307.00,542.00 404.00,639.00 404.00,639.00 404.00,639.00 428.00,663.00 428.00,663.00 430.09,665.09 435.80,670.04 435.80,673.00 435.80,675.96 430.09,680.91 428.00,683.00 428.00,683.00 404.00,707.00 404.00,707.00 404.00,707.00 307.00,804.00 307.00,804.00 307.00,804.00 280.00,832.00 280.00,832.00 277.65,834.36 272.63,840.57 269.00,839.66 266.33,838.99 258.37,830.37 256.00,828.00 256.00,828.00 224.00,796.00 224.00,796.00 224.00,796.00 143.00,715.00 143.00,715.00 143.00,715.00 102.00,673.00 102.00,673.00 102.00,673.00 223.00,552.00 223.00,552.00 Z M 1664.83,574.00 C 1664.83,574.00 1642.00,551.00 1642.00,551.00 1642.00,551.00 1630.00,539.00 1630.00,539.00 1628.41,537.42 1625.12,533.87 1623.00,533.34 1618.91,532.31 1609.01,543.99 1606.00,547.00 1606.00,547.00 1567.00,586.00 1567.00,586.00 1564.32,588.68 1554.20,597.62 1554.20,601.00 1554.20,603.96 1559.91,608.91 1562.00,611.00 1562.00,611.00 1584.00,633.00 1584.00,633.00 1584.00,633.00 1611.00,660.00 1611.00,660.00 1613.21,662.21 1618.93,668.80 1622.00,668.80 1624.24,668.80 1626.49,666.42 1628.00,664.98 1628.00,664.98 1640.00,653.00 1640.00,653.00 1640.00,653.00 1674.00,619.00 1674.00,619.00 1679.17,613.83 1688.01,606.33 1691.00,600.00 1683.30,594.49 1671.48,581.35 1664.83,574.00 Z M 250.00,623.00 C 250.00,623.00 217.00,656.00 217.00,656.00 217.00,656.00 205.06,668.00 205.06,668.00 205.06,668.00 202.34,674.00 202.34,674.00 202.34,674.00 208.00,681.00 208.00,681.00 208.00,681.00 220.00,693.00 220.00,693.00 220.00,693.00 250.00,723.00 250.00,723.00 250.00,723.00 268.00,742.00 268.00,742.00 274.72,740.03 281.02,731.98 286.00,727.00 286.00,727.00 323.00,690.00 323.00,690.00 323.00,690.00 334.94,678.00 334.94,678.00 336.43,676.33 338.29,674.47 337.66,672.01 337.08,669.75 333.72,667.24 332.00,665.72 332.00,665.72 319.00,653.00 319.00,653.00 319.00,653.00 270.00,604.00 270.00,604.00 270.00,604.00 250.00,623.00 250.00,623.00 Z M 1000.00,706.00 C 1000.00,706.00 1048.00,754.00 1048.00,754.00 1048.00,754.00 1070.00,775.00 1070.00,775.00 1070.00,775.00 1143.00,848.00 1143.00,848.00 1143.00,848.00 1155.00,859.01 1155.00,859.01 1155.00,859.01 1192.00,896.00 1192.00,896.00 1192.00,896.00 1230.00,933.99 1230.00,933.99 1230.00,933.99 1253.00,956.00 1253.00,956.00 1259.21,962.21 1275.78,977.18 1279.00,984.00 1279.00,984.00 668.00,984.00 668.00,984.00 668.00,984.00 702.00,949.00 702.00,949.00 702.00,949.00 766.00,885.00 766.00,885.00 766.00,885.00 835.00,816.01 835.00,816.01 835.00,816.01 847.00,805.00 847.00,805.00 847.00,805.00 972.00,680.00 972.00,680.00 980.72,685.53 992.29,698.29 1000.00,706.00 Z M 507.00,742.00 C 507.00,742.00 540.00,776.00 540.00,776.00 540.00,776.00 504.00,811.96 504.00,811.96 504.00,811.96 493.00,822.00 493.00,822.00 493.00,822.00 363.00,952.00 363.00,952.00 363.00,952.00 311.00,1003.99 311.00,1003.99 311.00,1003.99 300.00,1014.01 300.00,1014.01 300.00,1014.01 269.00,1044.00 269.00,1044.00 269.00,1044.00 157.00,932.00 157.00,932.00 157.00,932.00 100.00,875.04 100.00,875.04 100.00,875.04 91.00,866.96 91.00,866.96 91.00,866.96 34.00,810.00 34.00,810.00 34.00,810.00 0.00,775.00 0.00,775.00 0.00,775.00 48.00,727.00 48.00,727.00 48.00,727.00 60.00,715.02 60.00,715.02 61.51,713.58 63.76,711.20 66.00,711.20 69.38,711.20 78.32,721.32 81.00,724.00 81.00,724.00 119.00,762.00 119.00,762.00 119.00,762.00 134.00,776.00 134.00,776.00 134.00,776.00 270.00,912.00 270.00,912.00 270.00,912.00 291.00,890.00 291.00,890.00 291.00,890.00 336.00,846.00 336.00,846.00 336.00,846.00 473.00,709.00 473.00,709.00 473.00,709.00 507.00,742.00 507.00,742.00 Z M 1030.00,870.00 C 1030.00,870.00 991.00,831.00 991.00,831.00 991.00,831.00 977.00,817.06 977.00,817.06 975.00,815.24 972.92,813.16 970.00,814.17 967.76,814.94 963.78,819.22 962.00,821.00 962.00,821.00 947.00,836.00 947.00,836.00 947.00,836.00 912.00,871.00 912.00,871.00 906.31,876.69 896.36,885.91 892.00,892.00 892.00,892.00 918.00,892.00 918.00,892.00 918.00,892.00 972.00,892.00 972.00,892.00 972.00,892.00 1025.00,892.00 1025.00,892.00 1025.00,892.00 1051.00,892.00 1051.00,892.00 1046.59,885.84 1035.81,875.81 1030.00,870.00 Z M 608.00,1045.00 C 608.00,1045.00 658.00,1095.00 658.00,1095.00 658.00,1095.00 714.00,1152.00 714.00,1152.00 714.00,1152.00 748.00,1187.00 748.00,1187.00 748.00,1187.00 637.00,1298.00 637.00,1298.00 637.00,1298.00 601.00,1334.00 601.00,1334.00 601.00,1334.00 580.00,1354.00 580.00,1354.00 580.00,1354.00 455.00,1229.00 455.00,1229.00 455.00,1229.00 424.00,1198.00 424.00,1198.00 421.67,1195.67 414.20,1189.16 414.20,1186.00 414.20,1182.84 421.67,1176.33 424.00,1174.00 424.00,1174.00 455.00,1143.00 455.00,1143.00 455.00,1143.00 580.00,1018.00 580.00,1018.00 580.00,1018.00 608.00,1045.00 608.00,1045.00 Z M 598.00,1238.00 C 598.00,1238.00 632.00,1204.00 632.00,1204.00 632.00,1204.00 643.98,1192.00 643.98,1192.00 645.42,1190.49 647.80,1188.24 647.80,1186.00 647.80,1182.93 641.21,1177.21 639.00,1175.00 639.00,1175.00 612.00,1148.00 612.00,1148.00 612.00,1148.00 590.00,1126.00 590.00,1126.00 587.91,1123.91 582.96,1118.20 580.00,1118.20 576.62,1118.20 567.68,1128.32 565.00,1131.00 565.00,1131.00 526.00,1170.00 526.00,1170.00 522.99,1173.01 511.31,1182.91 512.34,1187.00 512.87,1189.12 516.42,1192.41 518.00,1194.00 518.00,1194.00 530.00,1206.00 530.00,1206.00 530.00,1206.00 563.00,1239.00 563.00,1239.00 563.00,1239.00 579.00,1255.00 579.00,1255.00 585.33,1252.01 592.83,1243.17 598.00,1238.00 Z" />
</svg>
