<svg version="1" xmlns="http://www.w3.org/2000/svg" width="1333.333" height="1333.333" viewBox="0 0 1000.000000 1000.000000"><path d="M269.6 277.7c-63.3 63.2-115.9 115.8-116.8 117-3.9 4.7-2.8 6.6 13.3 22.9 8.4 8.4 16.3 15.5 17.6 15.9 1.5.3 3.4 0 4.8-.9 3.2-2.1 231.6-229.3 233.7-232.5 1-1.4 1.8-3.5 1.8-4.5 0-1.2-6.1-8.1-15.2-17.3-15.1-15.2-15.3-15.3-19.7-15.3h-4.4L269.6 277.7zM420.9 228.7c-14.6 14.4-16.9 17-16.9 19.7 0 2.7 2.2 5.3 16.2 19.1 9 8.7 95.1 93.8 191.3 189C811.4 654.2 808.1 651 811.2 651c1.7 0 19.6-17.3 69-66.8 58.3-58.2 66.8-67.1 66.8-69.7 0-2.5-2.5-5.5-15.8-18.7C918 482.6 915 480 912.5 480c-2.6 0-9.5 6.6-52.2 49.2l-49.2 49.2-75.8-75.1c-41.7-41.4-80.7-80.2-86.8-86.3-6-6.1-54.9-54.8-108.6-108.1-70-69.4-98.3-96.9-99.9-96.9-1.5 0-7.6 5.3-19.1 16.7z"/><path d="M369.3 280.2C356.5 293 353 297 353 299c0 2.2 8.3 10.9 44.3 46.6 47.3 47.1 194.4 192.6 297 293.8 34.5 34.1 62.7 62.3 62.7 62.8 0 .4-90.7.8-201.6.8-183.4 0-201.6.1-201 1.6.3.9.6 2 .6 2.6 0 1.4 39.9 41.7 46.3 46.9l4.9 3.9h400.6l4.9-3.9c2.6-2.1 45.6-44.8 95.6-94.8 79.1-79.3 90.7-91.2 90.7-93.8 0-2.5-2.6-5.5-16.3-19.2-11.3-11.3-16.9-16.3-18.5-16.3-1.6 0-22.6 20.5-76.9 75-41 41.3-75 74.9-75.3 74.8-.8-.3-298.9-294.8-375.6-371-33.7-33.5-45.7-44.8-47.4-44.8-1.7 0-6.9 4.5-18.7 16.2z"/><path d="M330.3 318.9c-3.2 2.7-33.3 32.5-67 66.3-41.1 41.2-61.4 62.2-61.9 64-.6 2.6 1.9 5.4 33.9 38 19 19.4 41.1 41.7 49.1 49.6 8 7.9 14.6 14.7 14.6 15.1 0 .4-33.1 33.7-73.5 74-40.4 40.4-73.7 74.2-74 75.2-1 3.2 2 7.1 16.8 21.6 12.5 12.3 14.9 14.3 17.6 14.3 2.9 0 16.7-13.5 145.1-141.2 78.1-77.7 142.2-142 142.5-142.9.3-.9.1-2.7-.4-4.1-1.1-3-128.4-131.4-132.2-133.4-1.6-.8-3.2-1.4-3.8-1.4-.5 0-3.6 2.2-6.8 4.9zm40.1 99.1l31.7 32-4.2 4.9c-2.3 2.7-16.9 17.3-32.4 32.4l-28.2 27.5-16-15.6c-8.9-8.6-23.4-23.2-32.4-32.5L272.7 450l31.8-32c17.6-17.6 32.4-32 33.1-32 .6 0 15.4 14.4 32.8 32zM804.4 378.9c-2.1 1.6-21.3 20.4-42.6 41.8-37.8 37.9-38.8 39-38.8 42.8 0 3.8 1.1 5 41.2 45.1 22.6 22.7 42.4 41.8 44 42.5 2.1.9 3.5.9 5.6 0 1.6-.7 21.4-19.7 44-42.4 47.5-47.5 44.9-43.7 36-53.5-10.5-11.5-72.4-73.5-76.2-76.3-4.9-3.7-8.3-3.7-13.2 0zm45.2 46.1c20.8 21 38 38.4 38.2 38.8.1.4-17.1 18-38.3 39.2L811 541.5l-38.7-38.7-38.8-38.8 38-38.3c20.9-21.1 38.5-38.5 39.1-38.6.6 0 18.1 17 39 37.9z"/><path d="M807.5 426.4c-1.6.8-10.1 8.6-18.7 17.4-14.8 15-15.8 16.2-15.8 19.8 0 3.5 1 4.7 15.8 19.7 16.8 16.9 19.8 19.3 24.1 18.2 1.5-.4 9.3-7.3 18.8-16.8 12.8-12.6 16.5-17 17.7-20.4.8-2.4 1.1-4.3.6-4.3-.5 0-8-7.2-16.7-16.1-14.2-14.4-19.5-19-22-18.9-.4.1-2.1.7-3.8 1.4zm17.4 23.2c7.2 7.5 13.1 13.9 13.1 14.3 0 .3-6.1 6.7-13.5 14.1L811 491.5l-14-14-14-14 13.7-13.7c7.6-7.6 14.1-13.8 14.4-13.8.4 0 6.6 6.1 13.8 13.6zM128.4 414.9c-2.1 1.6-21.3 20.4-42.6 41.8C48 494.6 47 495.7 47 499.5c0 3.8 1.1 5 40.8 44.8 22.4 22.5 42 41.5 43.6 42.4 1.7.9 3.9 1.2 5.5.8 3.2-.8 82.4-79.5 84.6-84.2 1-2 1.3-4.3.9-6-.7-3.1-77.8-81.3-82.6-83.9-4-2.1-7.1-1.7-11.4 1.5zm82.7 84.9c-.2.4-17.4 18-38.3 39.1l-38 38.4-38.4-38.4c-21.1-21.1-38.3-38.7-38.2-39.1.2-.4 17.5-18 38.5-39.1l38.3-38.3 38.2 38.3c21.1 21.1 38.1 38.7 37.9 39.1z"/><path d="M129.4 463.9c-7 5.2-31.2 30.5-31.9 33.4-.4 1.5-.2 4 .4 5.6 1.9 4.4 33.3 35.1 36 35.1 4.1 0 7.5-2.8 23.4-18.7 16.9-17.1 17.8-18.7 14.1-24.3-2.5-3.7-26.3-27.8-30.8-31.1-4.9-3.6-6.3-3.6-11.2 0zm19 21.8c7.5 7.5 13.6 13.9 13.6 14.2 0 .4-6.1 6.7-13.5 14.1L135 527.5l-14-14-14-14 13.7-13.7c7.6-7.6 13.9-13.8 14-13.8.1 0 6.3 6.1 13.7 13.7zM408.9 575.6c-41.1 41.1-75.6 76.4-76.8 78.5l-2.2 3.9H643l-1.5-3.8c-1.1-2.7-20.6-22.7-69.7-71.5-74.7-74.1-82.7-81.7-86-81.7-1.6 0-23 20.7-76.9 74.6zm93.8 13.6c9 9 16.3 16.6 16.3 17 0 .5-15.1.8-33.5.8s-33.5-.2-33.5-.5c0-.6 33.2-33.5 33.9-33.5.3 0 7.9 7.3 16.8 16.2z"/><path d="M15.3 531.2C.3 546.2 0 546.5 0 550.7v4.4l65.6 65.2c36 35.8 66.2 65.6 67 66 .8.5 2.4.5 3.7.1 1.9-.6 128.8-125.7 134-132.2 3-3.6 1-6.5-15.8-23.1-12.4-12.2-15.8-15.1-18.1-15.1-2.3 0-10.4 7.6-51.9 49-27 26.9-49.3 49-49.6 49-.4 0-9.1-8.6-19.5-19.1-41-41.4-80.2-78.9-82.5-78.9-1.6 0-6.9 4.6-17.6 15.2zM245.7 708.7c-22.5 22.5-41.5 42.1-42.4 43.7-.9 1.7-1.2 3.9-.8 5.5.4 1.6 14.7 16.7 39.3 41.3l38.7 38.8h20.1l38.7-38.8c37.3-37.4 38.7-38.9 38.7-42.6 0-3.5-1-4.8-13.2-17.5-28.5-29.4-60.6-61.5-66.1-66.2-9.9-8.3-6.2-10.9-53 35.8zm83.3 8.8l38.5 38.5-38.8 38.8-38.7 38.7-38.7-38.7-38.8-38.8 38.5-38.5c21.2-21.2 38.7-38.5 39-38.5.3 0 17.8 17.3 39 38.5z"/><path d="M283.4 720.9c-6.6 4.9-30.2 29.6-30.9 32.4-1.4 5.4.4 8 16.9 24.4 16 16 16.3 16.3 20.5 16.3 4.3 0 4.6-.3 20.7-16.3 16.5-16.4 18.3-19 16.9-24.4-.7-2.8-24.3-27.5-30.9-32.4-2.1-1.6-5.1-2.9-6.6-2.9s-4.5 1.3-6.6 2.9zm20.3 21.3c7.3 7.3 13.3 13.6 13.3 14 0 .4-6.1 6.7-13.6 14l-13.7 13.4-13.1-13.3c-7.2-7.4-13.1-13.8-13.1-14.3 0-1.2 24.7-26.8 26-26.9.5-.1 6.9 5.9 14.2 13.1z"/></svg>